# xmcd CD database file generated by MAGIX-FreeDB- v3.0beta1
#
# Track frame offsets:
#	150
#	17775
#	30851
#	47255
#	61613
#	77306
#	93856
#	109848
#	127768
#	143235
#	160251
#	176809
#
# Disc length: 2532
#
# Revision: 5
# Processed by: cddbd v1.5.2PL0 Copyright (c) Steve Scherf et al.
# Submitted via: MAGIX-FreeDB- v3.0beta1
#
DISCID=7f09e20c
DTITLE=Medina - Welcome to Medina
DYEAR=2010
DGENRE=Other
TTITLE0=Welcome to Medina
TTITLE1=You and I
TTITLE2=Addiction
TTITLE3=Lonely
TTITLE4=6 AM
TTITLE5=In your Arms
TTITLE6=Happy
TTITLE7=The One
TTITLE8=Gutter
TTITLE9=Selfish
TTITLE10=Execute me
TTITLE11=You and I (Acoustic Mix) (Bonus Track)
EXTD=
EXTT0=
EXTT1=
EXTT2=
EXTT3=
EXTT4=
EXTT5=
EXTT6=
EXTT7=
EXTT8=
EXTT9=
EXTT10=
EXTT11=
PLAYORDER=
